PathFileType	4	(X/Y/Z)	C:/Users/beibeiliu/ov580/test_trc/User3\sequence.48_training_dense_right.trc
DataRate	CameraRate	NumFrames	NumMarkers	Units	OrigDataRate	OrigDataStartFrame	OrigNumFrames
120	120	16	19	mm	120	1	188
Frame#	Time	ThumbCMC			ThumbMCP			ThumbIP			ThumbTip			IndexMCP			IndexPIP			IndexTip			MiddleMCP			MiddlePIP			MiddleTip			RingMCP			RingPIP			RingTip			PinkyMCP			PinkyPIP			PinkyTip			BackHand1			BackHand2			BackHand3	
		X0	Y0	Z0	X1	Y1	Z1	X2	Y2	Z2	X3	Y3	Z3	X4	Y4	Z4	X5	Y5	Z5	X6	Y6	Z6	X7	Y7	Z7	X8	Y8	Z8	X9	Y9	Z9	X10	Y10	Z10	X11	Y11	Z11	X12	Y12	Z12	X13	Y13	Z13	X14	Y14	Z14	X15	Y15	Z15	X16	Y16	Z16	X17	Y17	Z17	X18	Y18	Z18	
0	0	110.802	4.95641	71.4174	83.451	-4.80389	54.7872	64.1558	-14.7961	34.0374	50.9761	-23.7331	19.196	114.579	11.1763	-6.13216	102.137	7.71886	-33.1936	90.8992	6.25207	-51.7475	144.953	11.1738	-13.9674	137.63	9.85895	-41.5921	135.811	3.26154	-73.3319	163.35	1.7269	-7.54375	165.553	0.153721	-33.7293	169.9	-6.14727	-60.8338	182.339	-10.6984	7.74166	192.784	-15.2215	-11.9391	203.042	-20.4995	-29.7675	166.372	14.0516	39.9053	170.521	21.7373	69.9119	136.832	24.4557	56.9843	
1	0.00833333	109.129	4.6231	67.5236	89.0599	-5.65626	55.511	66.6367	-14.7128	32.9183	49.8981	-23.0018	23.4047	115.78	10.6768	-5.40824	101.761	9.65158	-31.5937	95.1809	5.05907	-55.5609	142.43	11.2908	-12.1596	137.808	9.26157	-44.8438	136.408	3.55765	-74.4886	162.359	2.8044	-9.07424	171.032	-0.587967	-29.8368	169.943	-5.78521	-59.6674	182.72	-11.2778	8.95614	194.593	-15.7871	-12.2741	200.857	-21.6233	-33.2059	167.024	13.5312	40.8208	171.609	20.3562	70.3793	137.183	25.1503	54.5564	
2	0.0166667	110.157	5.59742	73.7678	90.0419	-5.68489	53.9161	66.6526	-13.5336	35.0209	53.5537	-21.941	21.3562	117.54	11.0358	-5.15978	103.617	10.072	-27.0546	98.2941	5.81867	-51.9348	143.697	11.748	-16.5259	139.167	9.38726	-43.5922	138.305	2.52802	-75.0223	166.523	2.34967	-6.88439	168.276	0.394669	-29.1729	171.757	-6.3245	-57.4866	184.673	-9.51042	8.34019	195.196	-16.0652	-9.04142	202.266	-20.2903	-28.5505	169.278	13.8509	40.5355	175.912	20.4677	68.3135	140.763	25.5398	56.8193	
3	0.025	109.389	5.45473	71.8762	88.6393	-4.30671	57.7289	67.5818	-12.7143	33.8334	51.9076	-21.479	21.2634	116.678	12.542	-1.92206	103.509	10.5588	-30.3171	99.7854	6.86287	-52.9719	148.593	11.8584	-13.7479	143.854	9.05029	-43.9393	141.478	2.03769	-72.2687	165.613	4.41035	-7.75641	170.068	1.35879	-32.4076	170.481	-5.05214	-57.3756	184.821	-9.07001	10.1714	193.889	-14.4046	-6.91021	204.524	-19.5892	-31.507	167.538	16.2971	41.5724	175.014	18.5329	72.6215	137.395	24.8097	55.0034	
4	0.0333333	108.825	6.44463	70.8712	90.2185	-3.59972	55.6851	69.0706	-10.8127	33.4646	55.2474	-20.1661	16.9031	118.59	16.6089	-5.29291	105.565	16.343	-26.7644	101.816	12.1102	-51.7333	145.321	16.2848	-9.34678	142.85	13.1987	-42.9825	139.864	8.66805	-69.9924	165.612	5.9964	-2.49635	167.825	5.44002	-32.5415	171.481	0.751822	-58.5513	186.531	-7.43056	13.0301	196.081	-10.0024	-11.5114	204.773	-15.7667	-32.0584	169.007	16.8363	46.1429	178.588	19.8366	73.7451	143.588	24.8346	60.0089	
5	0.0416667	111.519	5.62814	67.4494	95.5326	-3.97558	50.2507	77.2141	-11.0293	30.5926	64.9542	-18.9353	10.972	120.27	23.2483	-3.64286	114.261	24.3284	-30.8808	101.456	24.1976	-54.5526	152.042	23.8187	-9.30069	150.809	24.2878	-39.2642	145.543	21.2632	-68.4	169.071	15.167	-5.63988	175.922	14.9699	-29.3445	174.538	10.172	-55.0817	192.638	-0.0467512	9.45099	198.276	-1.72901	-9.24993	210.81	-8.06331	-34.53	175.518	19.2693	44.4424	177.089	20.7175	72.7176	144.962	27.1034	57.1004	
6	0.05	118.175	3.73534	63.0063	98.9147	-5.78257	44.0577	82.7245	-13.5944	17.8929	75.845	-23.4186	-1.19835	129.13	30.5958	-5.76672	118.365	34.5782	-32.2741	117.81	35.0084	-57.0106	157.11	34.3542	-9.67021	158.133	36.8006	-38.9394	158.058	34.8188	-70.9212	180.784	24.0153	-4.8074	185.879	23.8765	-30.1567	187.503	15.5338	-56.3069	196.443	7.49535	10.7956	209.253	2.45264	-12.8179	214.383	-8.42822	-37.2192	176.491	25.892	48.2471	177.375	23.3615	75.9608	145.992	29.364	57.3139	
7	0.0583333	121.875	-0.244851	62.6028	108.341	-13.5913	36.8758	98.0633	-24.8226	10.5934	95.3995	-35.8528	-12.0717	136.278	30.8248	-7.71333	132.451	34.191	-37.2479	127.96	35.7095	-62.5461	168.679	33.8653	-11.1106	170.244	37.0755	-41.0234	175.318	30.5746	-75.7048	189.642	19.8405	-6.16362	195.952	13.9776	-32.9104	192.18	-3.22112	-54.6081	203.19	4.49967	11.8073	210.91	-3.92934	-11.4173	213.008	-25.852	-32.1711	181.715	26.8551	44.1169	181.404	23.3917	78.1384	148.117	29.0659	58.3339	
8	0.0666667	125.226	-6.61886	57.6848	110.894	-25.0667	37.5379	105.601	-39.4694	13.5651	105.367	-54.6451	-7.47531	140.934	19.7294	-10.056	135.038	23.4996	-37.1034	134.217	21.572	-60.0762	171.495	21.0195	-10.482	174.513	17.6073	-45.3281	174.123	1.63961	-69.7391	186.505	4.02257	-3.43644	191.396	-10.952	-29.8281	185.684	-43.7039	-39.9505	203.798	-10.4483	10.9863	204.222	-27.6083	-10.2517	200.942	-53.8417	-15.2835	186.639	17.6202	45.5368	184.769	17.0572	75.081	152.023	21.6035	57.8505	
9	0.075	116.073	-10.7228	65.0337	103.833	-34.0713	42.4	97.1456	-50.9547	20.4802	101.383	-68.887	-0.634343	136.26	6.57168	-9.39933	126.428	7.29383	-34.0669	124.474	-1.36428	-62.7447	160.189	3.34701	-15.664	161.683	-12.5179	-45.7204	155.18	-41.2523	-59.1723	177.883	-16.2451	-3.42007	176.32	-38.5583	-24.8441	164.659	-69.4526	-19.5429	195.919	-29.2244	12.3501	191.181	-50.4306	-4.46638	176.21	-74.1113	-2.32676	175.478	5.24538	46.0784	180.008	8.34992	72.4513	149.401	15.8662	57.5738	
10	0.0833333	111.451	-7.76493	63.1194	89.3901	-29.351	43.9526	79.2409	-49.706	24.7829	87.1537	-70.0629	7.23709	124.658	-1.10504	-7.32366	113.916	-6.50454	-39.7033	111.014	-21.7983	-59.1745	148.192	-15.8635	-17.4582	142.541	-36.8937	-40.5465	126.261	-70.1623	-35.0463	163.374	-33.6096	-7.34901	154.656	-58.106	-20.4141	137.251	-80.8855	-3.48423	179.694	-46.0675	12.1669	168.355	-66.9749	-0.84929	145.87	-85.7097	12.0499	169.214	-3.51249	44.1192	174.955	3.35213	71.7389	143.968	10.5206	54.9913	
11	0.0916667	108.586	8.68598	62.7783	86.3065	-7.98626	42.9226	68.0144	-27.8635	19.9828	68.9282	-51.6204	6.35966	119.878	1.8949	-15.4515	107.631	-8.97524	-43.1409	88.9839	-29.9782	-53.3554	134.167	-19.8833	-17.8445	115.72	-45.3343	-35.8506	90.4535	-64.9382	-15.8799	146.272	-40.1151	-8.56937	128.646	-62.9925	-16.2245	104.716	-71.0577	8.02534	154.904	-53.4031	7.21295	136.66	-74.4265	1.851	115.027	-78.6686	20.7964	166.288	-12.6916	34.5472	172.124	-4.27056	65.0961	143.141	14.392	44.6991	
12	0.1	116.248	23.6521	53.9733	89.7465	13.6145	35.0317	69.0538	0.86753	17.6112	61.3636	-21.994	4.28305	124.512	3.66176	-24.3892	104.583	-7.63882	-45.5875	78.2935	-16.2709	-45.0736	125.146	-22.7425	-25.1873	96.6513	-40.7219	-30.3521	73.3976	-43.4569	-4.11891	129.975	-42.3773	-10.9906	102.567	-58.1847	-11.9188	82.2463	-49.3063	11.8	135.671	-59.0034	6.99615	109.673	-66.2128	2.61453	89.3235	-57.4516	22.3731	163.777	-19.7422	31.5775	169.616	-14.9718	60.9675	154.844	13.7541	41.5841	
13	0.108333	133.121	23.2576	45.3991	104.568	28.7833	26.5736	83.2522	22.5065	7.3189	66.1598	6.46411	-2.47188	130.959	-3.26472	-25.1564	105.162	-4.69209	-46.9668	73.2288	0.670231	-36.3981	123.212	-27.3434	-23.2367	90.1967	-26.3957	-33.0015	67.1195	-15.4128	-0.518416	115.565	-44.0339	-12.2638	87.8822	-38.2309	-15.7473	72.8107	-27.2628	9.58163	116.028	-57.9133	9.46059	86.4844	-51.7078	3.71793	75.5437	-34.4955	18.9842	156.864	-32.0892	33.0809	164.082	-29.7667	58.2309	164.042	2.10577	37.4308	
14	0.116667	150.38	19.0719	41.2628	129.633	37.4772	21.431	107.985	38.691	-0.193323	83.6628	27.9787	-14.6468	137.046	-7.58657	-32.1835	110.694	2.26949	-49.0027	90.1469	21.1629	-39.1165	120.915	-23.1318	-27.9397	92.1005	-13.196	-38.0416	75.0147	11.1015	-10.0478	106.307	-39.0053	-13.1905	79.65	-21.4589	-19.1158	74.7467	0.682048	4.6915	99.317	-47.6011	7.35643	74.2205	-35.5993	-0.443618	71.5453	-7.63663	16.6424	142.94	-45.8945	32.1987	154.398	-41.7769	59.1463	164.249	-16.3202	33.2439	
15	0.125	166.739	5.3326	40.3796	154.889	27.0007	20.1965	141.881	41.1802	-2.92858	120.194	43.5609	-18.2604	147.485	-15.0808	-32.2112	130.569	4.74625	-53.3124	115.628	29.3976	-47.9966	124.043	-26.0441	-31.8748	105.827	-2.61755	-47.196	92.7382	25.6333	-30.0858	108.265	-31.2946	-18.5559	85.6067	-14.4095	-27.4453	81.4476	15.8438	-9.12346	91.7521	-37.5256	3.742	75.1684	-16.9426	-5.59174	78.6876	10.5398	6.91548	132.251	-53.5821	32.4975	139.524	-55.0746	57.7556	163.981	-33.358	37.3647	
